<?xml version="1.0" encoding="UTF-8"?>
<svg id="Capa_1" data-name="Capa 1" xmlns="http://www.w3.org/2000/svg" width="80" height="80" viewBox="0 0 80 80">
  <defs>
    <style>
      .cls-1 {
        fill: #c35740;
        stroke-width: 0px;
      }
    </style>
  </defs>
  <g>
    <path class="cls-1" d="M18.42,58.56l3.11,3.11-.93.93-2.1-2.1-.85.85,1.99,1.98-.93.93-1.99-1.98-.93.93,2.22,2.21-.93.93-3.23-3.22,4.57-4.58Z"/>
    <path class="cls-1" d="M22.27,62.23l1.17.82-2.97,4.22,2.16,1.52-.76,1.08-3.33-2.34,3.72-5.29Z"/>
    <path class="cls-1" d="M27.97,65.98l2.06.65.15,4.48h.02s2.7-3.57,2.7-3.57l2.05.65-1.95,6.17-1.36-.43,1.49-4.73h-.02s-3.11,4.22-3.11,4.22l-1.04-.33-.07-5.23h-.02s-1.49,4.73-1.49,4.73l-1.36-.43,1.95-6.17Z"/>
    <path class="cls-1" d="M35.15,71.44c.02-.52.13-.98.32-1.4.19-.41.45-.76.77-1.04.32-.28.7-.49,1.13-.63.43-.14.9-.2,1.41-.18.51.02.97.12,1.39.3.42.18.78.42,1.08.73s.52.68.68,1.1c.16.43.22.9.2,1.42s-.13.98-.32,1.4c-.19.41-.45.76-.77,1.04s-.7.49-1.13.63c-.43.14-.9.2-1.41.18-.51-.02-.97-.12-1.39-.3s-.78-.42-1.08-.73c-.3-.31-.52-.68-.68-1.1-.16-.43-.22-.9-.2-1.42ZM36.63,71.51c-.01.3.02.59.11.84.08.26.21.48.38.67.17.19.37.35.62.46.24.11.52.18.82.19.3.01.58-.03.83-.12.25-.09.47-.23.65-.41s.33-.39.43-.64.16-.53.18-.83c.01-.3-.02-.58-.11-.84-.08-.26-.21-.49-.38-.68-.17-.19-.37-.35-.62-.46-.24-.11-.52-.18-.82-.19-.3-.01-.58.03-.83.12s-.47.23-.65.41c-.18.18-.33.39-.43.65-.11.25-.16.53-.18.83Z"/>
    <path class="cls-1" d="M42.69,68.35l2.47-.43c.32-.06.64-.08.94-.07s.58.07.82.18.45.28.63.5c.17.23.29.53.36.9.08.45.03.85-.15,1.21-.18.36-.49.62-.92.78l2.09,2.41-1.68.3-1.78-2.31-.69.12.45,2.55-1.4.25-1.12-6.38ZM44.56,70.74l.83-.15c.13-.02.26-.05.4-.08.14-.03.26-.08.37-.15s.19-.15.25-.26c.06-.11.07-.25.04-.42-.03-.16-.08-.29-.17-.37-.08-.08-.18-.14-.29-.18s-.23-.05-.37-.04c-.14,0-.27.02-.39.04l-.92.16.26,1.45Z"/>
    <path class="cls-1" d="M49.99,66.58l1.1-.44,5.02,4.96-1.49.6-1.03-1.07-2.33.93v1.47s-1.45.58-1.45.58l.19-7.05ZM51.2,68.13l.02,2.16,1.47-.59-1.49-1.57Z"/>
    <path class="cls-1" d="M53.76,64.99l1.76-1.21c.43-.29.87-.53,1.31-.69s.89-.25,1.32-.23c.43.02.85.14,1.25.36.4.23.77.58,1.11,1.07.3.43.48.87.54,1.31.06.44.03.87-.09,1.28-.12.41-.32.8-.61,1.17-.28.36-.62.68-1.02.96l-1.92,1.32-3.67-5.33ZM57.86,68.43l.61-.42c.27-.19.5-.39.7-.6.2-.22.33-.45.42-.69.08-.25.1-.51.06-.78-.05-.28-.17-.56-.38-.87-.18-.26-.39-.45-.62-.58s-.47-.19-.72-.21c-.25-.01-.51.03-.78.12-.27.09-.52.22-.77.39l-.69.48,2.18,3.16Z"/>
    <path class="cls-1" d="M61.15,63.77c-.38-.35-.67-.73-.87-1.14-.2-.41-.3-.83-.31-1.26-.01-.43.07-.85.24-1.28.17-.42.42-.82.76-1.2.34-.38.71-.67,1.11-.88.4-.21.82-.33,1.25-.37.43-.03.86.03,1.28.18.43.15.84.4,1.22.75.38.35.67.73.87,1.14.2.41.3.83.31,1.26.01.43-.07.85-.24,1.28-.17.42-.42.82-.76,1.2-.34.38-.71.67-1.11.88-.4.21-.82.33-1.25.37s-.86-.03-1.28-.18c-.43-.15-.84-.4-1.22-.75ZM62.14,62.67c.23.2.46.36.72.46s.5.15.76.14.51-.07.75-.18c.24-.11.47-.28.67-.51.2-.23.35-.47.44-.72s.12-.51.1-.76c-.02-.26-.09-.5-.22-.74s-.3-.46-.53-.67c-.22-.2-.46-.35-.71-.45-.25-.1-.51-.15-.76-.14-.26,0-.51.07-.75.18-.24.11-.47.28-.67.51-.2.23-.35.47-.44.72-.09.25-.12.51-.1.76.02.26.09.5.22.75.13.24.3.46.52.66Z"/>
  </g>
  <path class="cls-1" d="M40,80C17.94,80,0,62.06,0,40S17.94,0,40,0s40,17.94,40,40-17.94,40-40,40ZM40,5.71C21.09,5.71,5.71,21.09,5.71,40s15.38,34.29,34.29,34.29,34.29-15.38,34.29-34.29S58.91,5.71,40,5.71Z"/>
  <g>
    <path class="cls-1" d="M13.26,43.67l4.97-4.97c1.06-1.06,2.78-1.06,3.84,0l3.25,3.25,2.54-3.81c.52-.78,1.53-1.04,2.36-.63l5.43,2.72,2.43-3.64c.66-.99,1.63-1.72,2.76-2.07l3.71-1.17-.55-.94c-.9-1.54-.85-3.45.11-4.95l2.89-4.45h-1.63c-.91,0-1.77.41-2.34,1.12l-.49.61-5.17-5.17h-1.72v-1.72l-3.45-5.17-1.63,2.17c-2.35,3.13-4.27,6.56-5.73,10.19l-1.26,1.42h-1.72l-.68.68c-1.56,1.56-3.3,2.93-5.15,4.09,1.67.26,3.07.36,4.11.4-2.3,4.02-4.59,8.04-6.89,12.06Z"/>
    <polygon class="cls-1" points="47.01 35.92 44.26 35.06 42.54 36.78 42.54 41.08 49.43 36.78 52.88 36.78 49.43 35.06 47.01 35.92"/>
    <polygon class="cls-1" points="49.43 28.17 49.43 29.89 46.18 29.89 47.8 32.12 51.16 31.54 54.62 35.06 52.88 31.61 59.77 29.89 52.88 29.89 49.43 28.17"/>
    <polygon class="cls-1" points="35.94 42.38 29.62 39.95 27.89 43.67 33.93 50.56 39.26 43.67 50.72 46.94 39.61 41.08 35.94 42.38"/>
    <polygon class="cls-1" points="56.32 24.72 57.72 28.17 63.64 29.3 72.69 33.91 54.6 21.28 56.32 24.72"/>
    <path class="cls-1" d="M6.37,35.06c3.45-.69,6.72-2,9.67-3.84-2.52-.39-5.63-1.15-8.97-2.62-1.24,3.58-1.93,7.41-1.93,11.4,0,.65.02,1.3.06,1.94l8.06,1.73-6.89-8.61Z"/>
    <path class="cls-1" d="M68.02,33.91l-1.24,6.04,3.73-1.88c.36,2.97,2.8,4.98,3.88,7.61.3-1.85.47-3.75.47-5.68,0-1.65-.12-3.28-.35-4.87-.68-.42-1.3-.83-1.82-1.22h-4.66Z"/>
  </g>
  <path class="cls-1" d="M27.89,47.51l6.96,6.78,5.14-6.78,12.88,3.39,12.09-4.5-23.25,11.32-6.86,4.57-16-11.43.78-5.48c.17-1.2,1.51-1.84,2.55-1.23l5.7,3.36Z"/>
</svg>
