<?xml version="1.0" encoding="UTF-8"?>
<svg xmlns="http://www.w3.org/2000/svg" width="80" height="80" viewBox="0 0 80 80">
  <defs>
    <style>
      .cls-1 {
        fill: #c35740;
        stroke-width: 0px;
      }
    </style>
  </defs>
  <g>
    <path class="cls-1" d="M46.04,146.4l7.78,7.77-2.33,2.33-5.26-5.25-2.13,2.14,4.97,4.96-2.33,2.33-4.97-4.96-2.32,2.33,5.55,5.54-2.33,2.33-8.07-8.06,11.43-11.46Z"/>
    <path class="cls-1" d="M55.68,155.59l2.92,2.05-7.42,10.55,5.4,3.8-1.89,2.69-8.32-5.85,9.31-13.24Z"/>
    <path class="cls-1" d="M69.91,164.94l5.14,1.62.38,11.19h.04s6.75-8.93,6.75-8.93l5.12,1.62-4.87,15.43-3.4-1.07,3.73-11.84h-.04s-7.79,10.54-7.79,10.54l-2.59-.82-.17-13.07h-.04s-3.73,11.82-3.73,11.82l-3.4-1.07,4.87-15.43Z"/>
    <path class="cls-1" d="M87.87,178.61c.05-1.29.32-2.46.8-3.49.48-1.03,1.12-1.9,1.93-2.61.81-.71,1.75-1.23,2.83-1.58,1.08-.35,2.26-.5,3.52-.45,1.26.05,2.42.3,3.47.74,1.05.44,1.95,1.05,2.69,1.82s1.31,1.69,1.7,2.76c.39,1.07.56,2.25.5,3.54s-.32,2.46-.8,3.49c-.48,1.03-1.12,1.9-1.93,2.61s-1.75,1.23-2.84,1.58c-1.08.35-2.26.5-3.52.45-1.26-.05-2.42-.3-3.47-.74s-1.95-1.05-2.69-1.82c-.74-.77-1.31-1.69-1.7-2.76-.39-1.07-.56-2.25-.5-3.54ZM91.56,178.76c-.03.76.06,1.46.27,2.1.21.64.52,1.2.95,1.69.42.48.94.87,1.54,1.15.61.29,1.29.44,2.05.48.76.03,1.46-.07,2.08-.3.63-.23,1.17-.57,1.63-1.02s.82-.98,1.09-1.6.41-1.31.44-2.08c.03-.75-.06-1.44-.27-2.09-.21-.65-.52-1.22-.95-1.7-.42-.48-.94-.87-1.54-1.15-.61-.28-1.29-.44-2.05-.48-.76-.03-1.46.07-2.08.3s-1.17.57-1.63,1.02c-.46.45-.82.98-1.09,1.61-.26.63-.41,1.32-.44,2.06Z"/>
    <path class="cls-1" d="M106.72,170.88l6.17-1.08c.81-.14,1.59-.2,2.35-.17s1.44.18,2.05.45,1.13.69,1.57,1.26c.43.57.73,1.31.89,2.24.2,1.13.07,2.13-.37,3.02-.45.89-1.21,1.54-2.3,1.95l5.24,6.02-4.21.74-4.45-5.78-1.73.3,1.12,6.37-3.51.62-2.8-15.94ZM111.39,176.86l2.07-.36c.32-.06.65-.13,1-.21.35-.08.66-.21.92-.37s.47-.38.62-.65c.15-.27.18-.63.1-1.06-.07-.41-.21-.71-.42-.92-.21-.21-.45-.36-.73-.44s-.59-.12-.92-.11c-.34.01-.66.05-.98.1l-2.3.4.64,3.62Z"/>
    <path class="cls-1" d="M124.98,166.46l2.74-1.1,12.55,12.4-3.73,1.5-2.57-2.66-5.83,2.34.02,3.68-3.65,1.46.48-17.62ZM128,170.32l.05,5.4,3.67-1.47-3.72-3.93Z"/>
    <path class="cls-1" d="M134.41,162.47l4.4-3.03c1.07-.73,2.16-1.31,3.29-1.74s2.23-.61,3.31-.57c1.08.04,2.13.34,3.14.91,1.01.56,1.93,1.45,2.77,2.67.74,1.08,1.19,2.17,1.35,3.27.16,1.1.08,2.17-.22,3.21-.31,1.03-.81,2.01-1.51,2.92-.71.91-1.55,1.71-2.55,2.39l-4.8,3.31-9.18-13.33ZM144.65,171.07l1.52-1.05c.68-.47,1.26-.97,1.75-1.51.49-.54.84-1.12,1.04-1.73.21-.61.25-1.27.14-1.95-.11-.69-.43-1.41-.95-2.16-.45-.65-.96-1.14-1.54-1.45s-1.18-.49-1.81-.51c-.63-.03-1.28.07-1.95.3-.67.23-1.31.55-1.92.98l-1.73,1.19,5.45,7.91Z"/>
    <path class="cls-1" d="M152.87,159.41c-.96-.87-1.69-1.81-2.18-2.84-.49-1.03-.75-2.08-.78-3.15-.03-1.07.17-2.14.59-3.19.42-1.06,1.05-2.06,1.9-2.99.85-.94,1.78-1.67,2.78-2.2,1.01-.53,2.05-.83,3.12-.91,1.07-.08,2.14.07,3.21.45,1.07.38,2.09,1.01,3.05,1.87.96.87,1.69,1.81,2.18,2.84.49,1.03.75,2.08.78,3.15.03,1.07-.17,2.14-.59,3.19-.42,1.06-1.05,2.06-1.9,2.99-.85.94-1.78,1.67-2.78,2.2-1.01.53-2.05.83-3.12.91s-2.14-.07-3.21-.45c-1.07-.38-2.09-1.01-3.05-1.87ZM155.35,156.66c.57.51,1.16.89,1.79,1.14s1.26.36,1.9.35,1.26-.17,1.87-.45c.61-.28,1.16-.71,1.67-1.28.51-.57.88-1.16,1.1-1.8s.31-1.27.26-1.91c-.05-.64-.23-1.26-.54-1.86s-.75-1.15-1.32-1.66c-.55-.5-1.15-.88-1.78-1.13-.63-.25-1.27-.37-1.91-.36-.64.02-1.26.17-1.87.45-.61.29-1.16.71-1.67,1.28-.51.57-.88,1.16-1.1,1.8-.22.63-.31,1.27-.26,1.91.05.64.23,1.26.55,1.87.32.6.75,1.16,1.31,1.66Z"/>
  </g>
  <path class="cls-1" d="M100,200C44.86,200,0,155.14,0,100S44.86,0,100,0s100,44.86,100,100-44.86,100-100,100ZM100,14.29C52.74,14.29,14.29,52.74,14.29,100s38.45,85.71,85.71,85.71,85.71-38.45,85.71-85.71S147.26,14.29,100,14.29Z"/>
  <g>
    <path class="cls-1" d="M33.15,109.17l12.42-12.42c2.65-2.65,6.96-2.65,9.61,0l8.11,8.11,6.35-9.53c1.29-1.94,3.83-2.61,5.91-1.57l13.58,6.79,6.07-9.11c1.64-2.46,4.08-4.29,6.9-5.19l9.28-2.93-1.37-2.34c-2.25-3.84-2.14-8.63.29-12.36l7.22-11.13h-4.07c-2.27,0-4.43,1.02-5.86,2.79l-1.23,1.52-12.92-12.92h-4.31v-4.31l-8.61-12.92-4.08,5.43c-5.87,7.83-10.68,16.39-14.32,25.48l-3.14,3.54h-4.31l-1.7,1.7c-3.91,3.91-8.24,7.32-12.88,10.22,4.16.65,7.68.9,10.27,1-5.74,10.05-11.48,20.1-17.23,30.14Z"/>
    <polygon class="cls-1" points="117.53 89.79 110.66 87.64 106.36 91.95 106.36 102.71 123.58 91.95 132.19 91.95 123.58 87.64 117.53 89.79"/>
    <polygon class="cls-1" points="123.58 70.41 123.58 74.72 115.44 74.72 119.51 80.3 127.89 78.85 136.56 87.64 132.19 79.03 149.42 74.72 132.19 74.72 123.58 70.41"/>
    <polygon class="cls-1" points="89.86 105.94 74.06 99.88 69.74 109.17 84.82 126.4 98.15 109.17 126.81 117.34 99.03 102.71 89.86 105.94"/>
    <polygon class="cls-1" points="140.81 61.8 144.31 70.41 159.11 73.25 181.72 84.79 136.5 53.19 140.81 61.8"/>
    <path class="cls-1" d="M15.92,87.64c8.62-1.72,16.8-5,24.18-9.61-6.29-.98-14.07-2.87-22.43-6.54-3.11,8.94-4.82,18.53-4.82,28.51,0,1.63.05,3.25.14,4.85l20.15,4.32-17.23-21.53Z"/>
    <path class="cls-1" d="M170.06,84.79l-3.11,15.09,9.32-4.71c.91,7.42,6.99,12.44,9.69,19.04.76-4.63,1.18-9.37,1.18-14.21,0-4.13-.31-8.19-.87-12.17-1.7-1.04-3.24-2.08-4.56-3.04h-11.66Z"/>
  </g>
  <path class="cls-1" d="M69.74,118.77l17.41,16.94,12.86-16.94,32.19,8.47,30.23-11.25-58.14,28.29-17.14,11.43-40-28.57,1.96-13.7c.43-3,3.77-4.61,6.39-3.07l14.25,8.4Z"/>
</svg>
